<svg width="233.808" height="26.856" viewBox="0 0 233.808 26.856" xmlns="http://www.w3.org/2000/svg"><g id="svgGroup" stroke-linecap="round" fill-rule="evenodd" font-size="9pt" stroke="#000" stroke-width="0.25mm" fill="#000" style="stroke:#000;stroke-width:0.25mm;fill:#000"><path d="M 132.96 9.432 L 126.864 16.056 L 132.96 22.656 L 129.264 22.656 L 124.368 16.968 L 124.368 22.656 L 121.632 22.656 L 121.632 4.896 L 124.368 4.896 L 124.368 15.216 L 129.168 9.432 L 132.96 9.432 Z M 42.96 14.856 L 42.96 22.656 L 40.248 22.656 L 40.248 15.264 A 5.697 5.697 0 0 0 40.157 14.211 Q 39.964 13.184 39.36 12.54 A 2.928 2.928 0 0 0 37.706 11.659 A 4.24 4.24 0 0 0 36.936 11.592 Q 35.4 11.592 34.5 12.54 Q 33.712 13.37 33.614 14.835 A 6.427 6.427 0 0 0 33.6 15.264 L 33.6 22.656 L 30.864 22.656 L 30.864 9.432 L 33.6 9.432 L 33.6 10.944 Q 34.272 10.128 35.316 9.672 Q 36.36 9.216 37.536 9.216 A 6.439 6.439 0 0 1 39.188 9.421 A 5.464 5.464 0 0 1 40.332 9.864 Q 41.568 10.512 42.264 11.784 A 5.483 5.483 0 0 1 42.827 13.382 Q 42.956 14.047 42.96 14.807 A 9.261 9.261 0 0 1 42.96 14.856 Z M 188.76 17.064 L 178.656 17.064 A 4.22 4.22 0 0 0 178.936 18.32 A 3.455 3.455 0 0 0 179.832 19.608 Q 180.888 20.568 182.424 20.568 A 4.084 4.084 0 0 0 183.692 20.383 Q 184.873 19.999 185.494 18.817 A 4.201 4.201 0 0 0 185.544 18.72 L 188.496 18.72 Q 187.896 20.544 186.324 21.708 A 5.829 5.829 0 0 1 183.87 22.747 A 8.002 8.002 0 0 1 182.424 22.872 A 7.224 7.224 0 0 1 180.338 22.579 A 6.322 6.322 0 0 1 179.028 22.02 Q 177.528 21.168 176.676 19.62 A 6.831 6.831 0 0 1 175.907 17.259 A 8.774 8.774 0 0 1 175.824 16.032 Q 175.824 13.992 176.652 12.444 Q 177.48 10.896 178.98 10.056 A 6.594 6.594 0 0 1 181.473 9.269 A 8.288 8.288 0 0 1 182.424 9.216 Q 184.296 9.216 185.76 10.032 Q 187.224 10.848 188.04 12.324 A 6.519 6.519 0 0 1 188.791 14.675 A 8.236 8.236 0 0 1 188.856 15.72 Q 188.856 16.464 188.76 17.064 Z M 100.176 5.976 L 103.2 5.976 L 97.68 16.608 L 97.68 22.656 L 94.944 22.656 L 94.944 16.608 L 89.4 5.976 L 92.448 5.976 L 96.312 14.16 L 100.176 5.976 Z M 56.352 11.28 L 56.352 4.896 L 59.112 4.896 L 59.112 22.656 L 56.352 22.656 L 56.352 20.664 A 4.813 4.813 0 0 1 55.152 21.848 A 6.094 6.094 0 0 1 54.492 22.248 A 5.423 5.423 0 0 1 52.649 22.817 A 6.87 6.87 0 0 1 51.768 22.872 Q 50.04 22.872 48.612 21.996 A 6.156 6.156 0 0 1 46.415 19.658 A 7.309 7.309 0 0 1 46.356 19.548 A 7.196 7.196 0 0 1 45.58 16.954 A 8.89 8.89 0 0 1 45.528 15.984 A 8.166 8.166 0 0 1 45.748 14.051 A 6.66 6.66 0 0 1 46.356 12.456 Q 47.184 10.92 48.612 10.068 A 6.077 6.077 0 0 1 51.737 9.216 A 7.175 7.175 0 0 1 51.792 9.216 A 6.158 6.158 0 0 1 54.19 9.712 A 7.104 7.104 0 0 1 54.348 9.78 Q 55.608 10.344 56.352 11.28 Z M 217.776 0 L 220.488 0 L 213.96 26.856 L 211.272 26.856 L 217.776 0 Z M 151.608 9.432 L 155.352 20.208 L 159.096 9.432 L 162 9.432 L 156.96 22.656 L 153.696 22.656 L 148.68 9.432 L 151.608 9.432 Z M 192.912 9.432 L 196.656 20.208 L 200.4 9.432 L 203.304 9.432 L 198.264 22.656 L 195 22.656 L 189.984 9.432 L 192.912 9.432 Z M 25.392 22.656 L 24.192 19.248 L 17.208 19.248 L 16.008 22.656 L 13.152 22.656 L 19.128 5.952 L 22.296 5.952 L 28.272 22.656 L 25.392 22.656 Z M 115.272 11.352 L 115.272 9.432 L 118.032 9.432 L 118.032 22.656 L 115.272 22.656 L 115.272 20.688 A 5.03 5.03 0 0 1 114.141 21.782 A 6.434 6.434 0 0 1 113.376 22.248 A 5.526 5.526 0 0 1 111.477 22.823 A 6.926 6.926 0 0 1 110.64 22.872 Q 108.936 22.872 107.52 21.996 A 6.163 6.163 0 0 1 105.382 19.742 A 7.344 7.344 0 0 1 105.276 19.548 A 7.196 7.196 0 0 1 104.5 16.954 A 8.89 8.89 0 0 1 104.448 15.984 A 8.166 8.166 0 0 1 104.668 14.051 A 6.66 6.66 0 0 1 105.276 12.456 Q 106.104 10.92 107.532 10.068 Q 108.96 9.216 110.688 9.216 A 6.724 6.724 0 0 1 112.063 9.35 A 5.137 5.137 0 0 1 113.412 9.828 A 6.142 6.142 0 0 1 114.517 10.563 A 4.992 4.992 0 0 1 115.272 11.352 Z M 138.388 22.514 A 7.079 7.079 0 0 0 140.664 22.872 A 8.362 8.362 0 0 0 140.797 22.871 A 7.13 7.13 0 0 0 144.132 22.02 Q 145.704 21.168 146.616 19.608 A 6.441 6.441 0 0 0 147.255 18.101 A 7.584 7.584 0 0 0 147.528 16.032 A 8.486 8.486 0 0 0 147.479 15.112 A 6.795 6.795 0 0 0 146.64 12.456 Q 145.752 10.896 144.216 10.056 A 6.661 6.661 0 0 0 143.066 9.561 A 7.377 7.377 0 0 0 140.784 9.216 Q 138.888 9.216 137.352 10.056 Q 135.816 10.896 134.928 12.456 A 6.545 6.545 0 0 0 134.291 14.019 A 7.807 7.807 0 0 0 134.04 16.032 A 8.698 8.698 0 0 0 134.116 17.2 A 6.785 6.785 0 0 0 134.904 19.62 Q 135.768 21.168 137.28 22.02 A 6.448 6.448 0 0 0 138.388 22.514 Z M 69.408 9.216 L 69.408 12.048 L 68.712 12.048 A 5.062 5.062 0 0 0 67.783 12.128 Q 66.845 12.303 66.276 12.864 A 2.301 2.301 0 0 0 65.771 13.645 Q 65.481 14.356 65.451 15.445 A 9.272 9.272 0 0 0 65.448 15.696 L 65.448 22.656 L 62.712 22.656 L 62.712 9.432 L 65.448 9.432 L 65.448 11.352 Q 66.048 10.344 67.044 9.78 A 4.266 4.266 0 0 1 68.434 9.295 A 5.736 5.736 0 0 1 69.408 9.216 Z M 164.064 4.896 L 166.8 4.896 L 166.8 22.656 L 164.064 22.656 L 164.064 4.896 Z M 8.976 19.44 L 5.52 19.44 L 0 13.992 L 5.52 8.544 L 8.976 8.544 L 3.432 13.992 L 8.976 19.44 Z M 230.376 13.992 L 224.832 8.544 L 228.288 8.544 L 233.808 13.992 L 228.288 19.44 L 224.832 19.44 L 230.376 13.992 Z M 71.928 9.432 L 74.664 9.432 L 74.664 22.656 L 71.928 22.656 L 71.928 9.432 Z M 78.264 9.432 L 81 9.432 L 81 22.656 L 78.264 22.656 L 78.264 9.432 Z M 170.4 9.432 L 173.136 9.432 L 173.136 22.656 L 170.4 22.656 L 170.4 9.432 Z M 56.352 16.032 A 5.584 5.584 0 0 0 56.229 14.831 A 4.269 4.269 0 0 0 55.788 13.656 A 4.237 4.237 0 0 0 55.02 12.651 A 3.722 3.722 0 0 0 54.312 12.12 Q 53.4 11.592 52.344 11.592 Q 51.288 11.592 50.376 12.108 A 3.798 3.798 0 0 0 49.085 13.32 A 4.629 4.629 0 0 0 48.9 13.62 A 4.266 4.266 0 0 0 48.415 15.01 A 5.736 5.736 0 0 0 48.336 15.984 A 5.615 5.615 0 0 0 48.473 17.249 A 4.432 4.432 0 0 0 48.9 18.384 A 4.274 4.274 0 0 0 49.66 19.401 A 3.734 3.734 0 0 0 50.388 19.956 Q 51.312 20.496 52.344 20.496 Q 53.4 20.496 54.312 19.968 Q 55.224 19.44 55.788 18.42 A 4.465 4.465 0 0 0 56.285 16.931 A 5.858 5.858 0 0 0 56.352 16.032 Z M 115.272 16.032 A 5.584 5.584 0 0 0 115.149 14.831 A 4.269 4.269 0 0 0 114.708 13.656 A 4.237 4.237 0 0 0 113.94 12.651 A 3.722 3.722 0 0 0 113.232 12.12 Q 112.32 11.592 111.264 11.592 Q 110.208 11.592 109.296 12.108 A 3.798 3.798 0 0 0 108.005 13.32 A 4.629 4.629 0 0 0 107.82 13.62 A 4.266 4.266 0 0 0 107.335 15.01 A 5.736 5.736 0 0 0 107.256 15.984 A 5.615 5.615 0 0 0 107.393 17.249 A 4.432 4.432 0 0 0 107.82 18.384 A 4.274 4.274 0 0 0 108.58 19.401 A 3.734 3.734 0 0 0 109.308 19.956 Q 110.232 20.496 111.264 20.496 Q 112.32 20.496 113.232 19.968 Q 114.144 19.44 114.708 18.42 A 4.465 4.465 0 0 0 115.205 16.931 A 5.858 5.858 0 0 0 115.272 16.032 Z M 140.664 20.496 Q 141.72 20.496 142.644 19.992 Q 143.568 19.488 144.144 18.48 Q 144.712 17.486 144.72 16.071 A 7.16 7.16 0 0 0 144.72 16.032 A 6.259 6.259 0 0 0 144.629 14.935 Q 144.514 14.293 144.256 13.765 A 3.769 3.769 0 0 0 144.168 13.596 A 3.988 3.988 0 0 0 143.415 12.614 A 3.519 3.519 0 0 0 142.704 12.096 Q 141.792 11.592 140.736 11.592 Q 139.68 11.592 138.78 12.096 A 3.517 3.517 0 0 0 137.508 13.326 A 4.337 4.337 0 0 0 137.352 13.596 Q 136.824 14.592 136.824 16.032 A 6.71 6.71 0 0 0 136.942 17.329 Q 137.092 18.091 137.434 18.682 A 3.536 3.536 0 0 0 137.916 19.332 A 3.586 3.586 0 0 0 140.51 20.493 A 4.602 4.602 0 0 0 140.664 20.496 Z M 17.976 17.016 L 23.424 17.016 L 20.712 9.264 L 17.976 17.016 Z M 178.68 14.856 L 186 14.856 A 3.56 3.56 0 0 0 185.8 13.697 A 2.995 2.995 0 0 0 184.92 12.432 Q 183.864 11.52 182.304 11.52 Q 180.888 11.52 179.88 12.42 A 3.566 3.566 0 0 0 178.809 14.193 A 4.827 4.827 0 0 0 178.68 14.856 Z M 73.32 7.68 Q 72.576 7.68 72.072 7.176 A 1.691 1.691 0 0 1 71.568 5.951 A 2.184 2.184 0 0 1 71.568 5.928 Q 71.568 5.184 72.072 4.68 A 1.691 1.691 0 0 1 73.297 4.176 A 2.184 2.184 0 0 1 73.32 4.176 A 1.665 1.665 0 0 1 74.528 4.664 A 1.985 1.985 0 0 1 74.544 4.68 A 1.691 1.691 0 0 1 75.048 5.905 A 2.184 2.184 0 0 1 75.048 5.928 Q 75.048 6.672 74.544 7.176 A 1.664 1.664 0 0 1 73.342 7.68 A 2.047 2.047 0 0 1 73.32 7.68 Z M 79.656 7.68 Q 78.912 7.68 78.408 7.176 A 1.691 1.691 0 0 1 77.904 5.951 A 2.184 2.184 0 0 1 77.904 5.928 Q 77.904 5.184 78.408 4.68 A 1.691 1.691 0 0 1 79.633 4.176 A 2.184 2.184 0 0 1 79.656 4.176 A 1.665 1.665 0 0 1 80.864 4.664 A 1.985 1.985 0 0 1 80.88 4.68 A 1.691 1.691 0 0 1 81.384 5.905 A 2.184 2.184 0 0 1 81.384 5.928 Q 81.384 6.672 80.88 7.176 A 1.664 1.664 0 0 1 79.678 7.68 A 2.047 2.047 0 0 1 79.656 7.68 Z M 171.792 7.68 Q 171.048 7.68 170.544 7.176 A 1.691 1.691 0 0 1 170.04 5.951 A 2.184 2.184 0 0 1 170.04 5.928 Q 170.04 5.184 170.544 4.68 A 1.691 1.691 0 0 1 171.769 4.176 A 2.184 2.184 0 0 1 171.792 4.176 A 1.665 1.665 0 0 1 173 4.664 A 1.985 1.985 0 0 1 173.016 4.68 A 1.691 1.691 0 0 1 173.52 5.905 A 2.184 2.184 0 0 1 173.52 5.928 Q 173.52 6.672 173.016 7.176 A 1.664 1.664 0 0 1 171.814 7.68 A 2.047 2.047 0 0 1 171.792 7.68 Z" vector-effect="non-scaling-stroke"/></g></svg>