<svg width="240.048" height="26.856" viewBox="0 0 240.048 26.856" xmlns="http://www.w3.org/2000/svg"><g id="svgGroup" stroke-linecap="round" fill-rule="evenodd" font-size="9pt" stroke="#588bad" stroke-width="0.25mm" fill="#588bad" style="stroke:#588bad;stroke-width:0.25mm;fill:#588bad"><path d="M 139.2 9.432 L 133.104 16.056 L 139.2 22.656 L 135.504 22.656 L 130.608 16.968 L 130.608 22.656 L 127.872 22.656 L 127.872 4.896 L 130.608 4.896 L 130.608 15.216 L 135.408 9.432 L 139.2 9.432 Z M 49.2 14.856 L 49.2 22.656 L 46.488 22.656 L 46.488 15.264 A 5.697 5.697 0 0 0 46.397 14.211 Q 46.204 13.184 45.6 12.54 A 2.928 2.928 0 0 0 43.946 11.659 A 4.24 4.24 0 0 0 43.176 11.592 Q 41.64 11.592 40.74 12.54 Q 39.952 13.37 39.854 14.835 A 6.427 6.427 0 0 0 39.84 15.264 L 39.84 22.656 L 37.104 22.656 L 37.104 9.432 L 39.84 9.432 L 39.84 10.944 Q 40.512 10.128 41.556 9.672 Q 42.6 9.216 43.776 9.216 A 6.439 6.439 0 0 1 45.428 9.421 A 5.464 5.464 0 0 1 46.572 9.864 Q 47.808 10.512 48.504 11.784 A 5.483 5.483 0 0 1 49.067 13.382 Q 49.196 14.047 49.2 14.807 A 9.261 9.261 0 0 1 49.2 14.856 Z M 195 17.064 L 184.896 17.064 A 4.22 4.22 0 0 0 185.176 18.32 A 3.455 3.455 0 0 0 186.072 19.608 Q 187.128 20.568 188.664 20.568 A 4.084 4.084 0 0 0 189.932 20.383 Q 191.113 19.999 191.734 18.817 A 4.201 4.201 0 0 0 191.784 18.72 L 194.736 18.72 Q 194.136 20.544 192.564 21.708 A 5.829 5.829 0 0 1 190.11 22.747 A 8.002 8.002 0 0 1 188.664 22.872 A 7.224 7.224 0 0 1 186.578 22.579 A 6.322 6.322 0 0 1 185.268 22.02 Q 183.768 21.168 182.916 19.62 A 6.831 6.831 0 0 1 182.147 17.259 A 8.774 8.774 0 0 1 182.064 16.032 Q 182.064 13.992 182.892 12.444 Q 183.72 10.896 185.22 10.056 A 6.594 6.594 0 0 1 187.713 9.269 A 8.288 8.288 0 0 1 188.664 9.216 Q 190.536 9.216 192 10.032 Q 193.464 10.848 194.28 12.324 A 6.519 6.519 0 0 1 195.031 14.675 A 8.236 8.236 0 0 1 195.096 15.72 Q 195.096 16.464 195 17.064 Z M 106.416 5.976 L 109.44 5.976 L 103.92 16.608 L 103.92 22.656 L 101.184 22.656 L 101.184 16.608 L 95.64 5.976 L 98.688 5.976 L 102.552 14.16 L 106.416 5.976 Z M 62.592 11.28 L 62.592 4.896 L 65.352 4.896 L 65.352 22.656 L 62.592 22.656 L 62.592 20.664 A 4.813 4.813 0 0 1 61.392 21.848 A 6.094 6.094 0 0 1 60.732 22.248 A 5.423 5.423 0 0 1 58.889 22.817 A 6.87 6.87 0 0 1 58.008 22.872 Q 56.28 22.872 54.852 21.996 A 6.156 6.156 0 0 1 52.655 19.658 A 7.309 7.309 0 0 1 52.596 19.548 A 7.196 7.196 0 0 1 51.82 16.954 A 8.89 8.89 0 0 1 51.768 15.984 A 8.166 8.166 0 0 1 51.988 14.051 A 6.66 6.66 0 0 1 52.596 12.456 Q 53.424 10.92 54.852 10.068 A 6.077 6.077 0 0 1 57.977 9.216 A 7.175 7.175 0 0 1 58.032 9.216 A 6.158 6.158 0 0 1 60.43 9.712 A 7.104 7.104 0 0 1 60.588 9.78 Q 61.848 10.344 62.592 11.28 Z M 224.016 0 L 226.728 0 L 220.2 26.856 L 217.512 26.856 L 224.016 0 Z M 157.848 9.432 L 161.592 20.208 L 165.336 9.432 L 168.24 9.432 L 163.2 22.656 L 159.936 22.656 L 154.92 9.432 L 157.848 9.432 Z M 199.152 9.432 L 202.896 20.208 L 206.64 9.432 L 209.544 9.432 L 204.504 22.656 L 201.24 22.656 L 196.224 9.432 L 199.152 9.432 Z M 31.632 22.656 L 30.432 19.248 L 23.448 19.248 L 22.248 22.656 L 19.392 22.656 L 25.368 5.952 L 28.536 5.952 L 34.512 22.656 L 31.632 22.656 Z M 121.512 11.352 L 121.512 9.432 L 124.272 9.432 L 124.272 22.656 L 121.512 22.656 L 121.512 20.688 A 5.03 5.03 0 0 1 120.381 21.782 A 6.434 6.434 0 0 1 119.616 22.248 A 5.526 5.526 0 0 1 117.717 22.823 A 6.926 6.926 0 0 1 116.88 22.872 Q 115.176 22.872 113.76 21.996 A 6.163 6.163 0 0 1 111.622 19.742 A 7.344 7.344 0 0 1 111.516 19.548 A 7.196 7.196 0 0 1 110.74 16.954 A 8.89 8.89 0 0 1 110.688 15.984 A 8.166 8.166 0 0 1 110.908 14.051 A 6.66 6.66 0 0 1 111.516 12.456 Q 112.344 10.92 113.772 10.068 Q 115.2 9.216 116.928 9.216 A 6.724 6.724 0 0 1 118.303 9.35 A 5.137 5.137 0 0 1 119.652 9.828 A 6.142 6.142 0 0 1 120.757 10.563 A 4.992 4.992 0 0 1 121.512 11.352 Z M 144.628 22.514 A 7.079 7.079 0 0 0 146.904 22.872 A 8.362 8.362 0 0 0 147.037 22.871 A 7.13 7.13 0 0 0 150.372 22.02 Q 151.944 21.168 152.856 19.608 A 6.441 6.441 0 0 0 153.495 18.101 A 7.584 7.584 0 0 0 153.768 16.032 A 8.486 8.486 0 0 0 153.719 15.112 A 6.795 6.795 0 0 0 152.88 12.456 Q 151.992 10.896 150.456 10.056 A 6.661 6.661 0 0 0 149.306 9.561 A 7.377 7.377 0 0 0 147.024 9.216 Q 145.128 9.216 143.592 10.056 Q 142.056 10.896 141.168 12.456 A 6.545 6.545 0 0 0 140.531 14.019 A 7.807 7.807 0 0 0 140.28 16.032 A 8.698 8.698 0 0 0 140.356 17.2 A 6.785 6.785 0 0 0 141.144 19.62 Q 142.008 21.168 143.52 22.02 A 6.448 6.448 0 0 0 144.628 22.514 Z M 75.648 9.216 L 75.648 12.048 L 74.952 12.048 A 5.062 5.062 0 0 0 74.023 12.128 Q 73.085 12.303 72.516 12.864 A 2.301 2.301 0 0 0 72.011 13.645 Q 71.721 14.356 71.691 15.445 A 9.272 9.272 0 0 0 71.688 15.696 L 71.688 22.656 L 68.952 22.656 L 68.952 9.432 L 71.688 9.432 L 71.688 11.352 Q 72.288 10.344 73.284 9.78 A 4.266 4.266 0 0 1 74.674 9.295 A 5.736 5.736 0 0 1 75.648 9.216 Z M 170.304 4.896 L 173.04 4.896 L 173.04 22.656 L 170.304 22.656 L 170.304 4.896 Z M 8.976 19.44 L 5.52 19.44 L 0 13.992 L 5.52 8.544 L 8.976 8.544 L 3.432 13.992 L 8.976 19.44 Z M 236.616 13.992 L 231.072 8.544 L 234.528 8.544 L 240.048 13.992 L 234.528 19.44 L 231.072 19.44 L 236.616 13.992 Z M 78.168 9.432 L 80.904 9.432 L 80.904 22.656 L 78.168 22.656 L 78.168 9.432 Z M 84.504 9.432 L 87.24 9.432 L 87.24 22.656 L 84.504 22.656 L 84.504 9.432 Z M 176.64 9.432 L 179.376 9.432 L 179.376 22.656 L 176.64 22.656 L 176.64 9.432 Z M 62.592 16.032 A 5.584 5.584 0 0 0 62.469 14.831 A 4.269 4.269 0 0 0 62.028 13.656 A 4.237 4.237 0 0 0 61.26 12.651 A 3.722 3.722 0 0 0 60.552 12.12 Q 59.64 11.592 58.584 11.592 Q 57.528 11.592 56.616 12.108 A 3.798 3.798 0 0 0 55.325 13.32 A 4.629 4.629 0 0 0 55.14 13.62 A 4.266 4.266 0 0 0 54.655 15.01 A 5.736 5.736 0 0 0 54.576 15.984 A 5.615 5.615 0 0 0 54.713 17.249 A 4.432 4.432 0 0 0 55.14 18.384 A 4.274 4.274 0 0 0 55.9 19.401 A 3.734 3.734 0 0 0 56.628 19.956 Q 57.552 20.496 58.584 20.496 Q 59.64 20.496 60.552 19.968 Q 61.464 19.44 62.028 18.42 A 4.465 4.465 0 0 0 62.525 16.931 A 5.858 5.858 0 0 0 62.592 16.032 Z M 121.512 16.032 A 5.584 5.584 0 0 0 121.389 14.831 A 4.269 4.269 0 0 0 120.948 13.656 A 4.237 4.237 0 0 0 120.18 12.651 A 3.722 3.722 0 0 0 119.472 12.12 Q 118.56 11.592 117.504 11.592 Q 116.448 11.592 115.536 12.108 A 3.798 3.798 0 0 0 114.245 13.32 A 4.629 4.629 0 0 0 114.06 13.62 A 4.266 4.266 0 0 0 113.575 15.01 A 5.736 5.736 0 0 0 113.496 15.984 A 5.615 5.615 0 0 0 113.633 17.249 A 4.432 4.432 0 0 0 114.06 18.384 A 4.274 4.274 0 0 0 114.82 19.401 A 3.734 3.734 0 0 0 115.548 19.956 Q 116.472 20.496 117.504 20.496 Q 118.56 20.496 119.472 19.968 Q 120.384 19.44 120.948 18.42 A 4.465 4.465 0 0 0 121.445 16.931 A 5.858 5.858 0 0 0 121.512 16.032 Z M 146.904 20.496 Q 147.96 20.496 148.884 19.992 Q 149.808 19.488 150.384 18.48 Q 150.952 17.486 150.96 16.071 A 7.16 7.16 0 0 0 150.96 16.032 A 6.259 6.259 0 0 0 150.869 14.935 Q 150.754 14.293 150.496 13.765 A 3.769 3.769 0 0 0 150.408 13.596 A 3.988 3.988 0 0 0 149.655 12.614 A 3.519 3.519 0 0 0 148.944 12.096 Q 148.032 11.592 146.976 11.592 Q 145.92 11.592 145.02 12.096 A 3.517 3.517 0 0 0 143.748 13.326 A 4.337 4.337 0 0 0 143.592 13.596 Q 143.064 14.592 143.064 16.032 A 6.71 6.71 0 0 0 143.182 17.329 Q 143.332 18.091 143.674 18.682 A 3.536 3.536 0 0 0 144.156 19.332 A 3.586 3.586 0 0 0 146.75 20.493 A 4.602 4.602 0 0 0 146.904 20.496 Z M 24.216 17.016 L 29.664 17.016 L 26.952 9.264 L 24.216 17.016 Z M 184.92 14.856 L 192.24 14.856 A 3.56 3.56 0 0 0 192.04 13.697 A 2.995 2.995 0 0 0 191.16 12.432 Q 190.104 11.52 188.544 11.52 Q 187.128 11.52 186.12 12.42 A 3.566 3.566 0 0 0 185.049 14.193 A 4.827 4.827 0 0 0 184.92 14.856 Z M 79.56 7.68 Q 78.816 7.68 78.312 7.176 A 1.691 1.691 0 0 1 77.808 5.951 A 2.184 2.184 0 0 1 77.808 5.928 Q 77.808 5.184 78.312 4.68 A 1.691 1.691 0 0 1 79.537 4.176 A 2.184 2.184 0 0 1 79.56 4.176 A 1.665 1.665 0 0 1 80.768 4.664 A 1.985 1.985 0 0 1 80.784 4.68 A 1.691 1.691 0 0 1 81.288 5.905 A 2.184 2.184 0 0 1 81.288 5.928 Q 81.288 6.672 80.784 7.176 A 1.664 1.664 0 0 1 79.582 7.68 A 2.047 2.047 0 0 1 79.56 7.68 Z M 85.896 7.68 Q 85.152 7.68 84.648 7.176 A 1.691 1.691 0 0 1 84.144 5.951 A 2.184 2.184 0 0 1 84.144 5.928 Q 84.144 5.184 84.648 4.68 A 1.691 1.691 0 0 1 85.873 4.176 A 2.184 2.184 0 0 1 85.896 4.176 A 1.665 1.665 0 0 1 87.104 4.664 A 1.985 1.985 0 0 1 87.12 4.68 A 1.691 1.691 0 0 1 87.624 5.905 A 2.184 2.184 0 0 1 87.624 5.928 Q 87.624 6.672 87.12 7.176 A 1.664 1.664 0 0 1 85.918 7.68 A 2.047 2.047 0 0 1 85.896 7.68 Z M 178.032 7.68 Q 177.288 7.68 176.784 7.176 A 1.691 1.691 0 0 1 176.28 5.951 A 2.184 2.184 0 0 1 176.28 5.928 Q 176.28 5.184 176.784 4.68 A 1.691 1.691 0 0 1 178.009 4.176 A 2.184 2.184 0 0 1 178.032 4.176 A 1.665 1.665 0 0 1 179.24 4.664 A 1.985 1.985 0 0 1 179.256 4.68 A 1.691 1.691 0 0 1 179.76 5.905 A 2.184 2.184 0 0 1 179.76 5.928 Q 179.76 6.672 179.256 7.176 A 1.664 1.664 0 0 1 178.054 7.68 A 2.047 2.047 0 0 1 178.032 7.68 Z" vector-effect="non-scaling-stroke"/></g></svg>